<svg width="421" height="525" viewBox="0 0 421 525" fill="none" xmlns="http://www.w3.org/2000/svg">
<rect width="421" height="525" fill="#054CA3"/>
<path d="M127.249 47.368H138.193C142.441 47.368 146.365 49.06 146.365 53.776C146.365 56.296 144.889 58.456 142.585 59.284C145.753 60.004 147.517 62.38 147.517 65.764C147.517 71.668 142.693 73 137.797 73H127.249V47.368ZM130.561 50.248V58.348H136.645C139.525 58.348 142.981 58.132 142.981 54.28C142.981 50.428 139.993 50.248 136.969 50.248H130.561ZM130.561 61.012V70.156H137.329C140.749 70.156 144.097 69.94 144.097 65.44C144.097 60.976 140.173 61.012 136.753 61.012H130.561ZM168.202 47.368V50.32H153.838V58.348H167.266V61.192H153.838V70.048H168.382V73H150.454V47.368H168.202ZM189.922 47.368V73H186.538V50.32H177.07L176.566 64.756C176.386 69.904 174.514 73.54 170.626 73.54C169.906 73.54 168.826 73.288 168.178 73.036V70.156C168.646 70.444 169.618 70.516 170.014 70.516C171.85 70.516 173.182 69.508 173.362 62.992L173.83 47.368H189.922ZM194.226 73V47.368H197.61V69.076H197.682L210.246 47.368H214.53V73H211.146V51.22H211.074L198.474 73H194.226ZM239.575 47.368L228.775 57.664L240.007 73H235.687L226.399 59.968L222.151 64V73H218.767V47.368H222.151V60.076L235.147 47.368H239.575ZM241.338 73V47.368H244.722V69.076H244.794L257.358 47.368H261.642V73H258.258V51.22H258.186L245.586 73H241.338ZM281.431 40.636C280.963 43.516 279.163 45.604 276.031 45.604C273.043 45.604 270.919 43.516 270.559 40.636H272.395C272.899 42.364 274.159 43.444 275.995 43.444C277.867 43.444 279.019 42.364 279.595 40.636H281.431ZM265.879 73V47.368H269.263V69.076H269.335L281.899 47.368H286.183V73H282.799V51.22H282.727L270.127 73H265.879ZM41.2198 83.368V109H37.8358V86.32H28.3678L27.8638 100.756C27.6838 105.904 25.8118 109.54 21.9238 109.54C21.2038 109.54 20.1238 109.288 19.4758 109.036V106.156C19.9438 106.444 20.9158 106.516 21.3118 106.516C23.1478 106.516 24.4798 105.508 24.6598 98.992L25.1278 83.368H41.2198ZM56.3243 82.756C64.2803 82.756 68.6363 88.336 68.6363 95.968C68.6363 103.492 64.4963 109.612 56.3603 109.612C48.1523 109.612 44.0843 103.348 44.0843 95.896C44.0843 87.904 48.8723 82.756 56.3243 82.756ZM56.3243 85.708C50.2763 85.708 47.4683 90.676 47.4683 96.148C47.4683 102.556 50.9603 106.696 56.3963 106.696C61.7603 106.696 65.2523 102.52 65.2523 96.148C65.2523 89.812 61.7603 85.708 56.3243 85.708ZM91.7399 83.368V109H88.3559V97.012H74.8199V109H71.4359V83.368H74.8199V94.06H88.3559V83.368H91.7399ZM118.548 115.372H115.272V109H96.7323V115.372H93.4563V106.048H95.9763C97.9203 102.592 99.3243 95.392 99.3243 88.336V83.368H115.704V106.048H118.548V115.372ZM112.32 106.048V86.32H102.636V89.812C102.636 96.184 101.304 102.844 99.7203 106.048H112.32ZM131.317 82.756C139.273 82.756 143.629 88.336 143.629 95.968C143.629 103.492 139.489 109.612 131.353 109.612C123.145 109.612 119.077 103.348 119.077 95.896C119.077 87.904 123.865 82.756 131.317 82.756ZM131.317 85.708C125.269 85.708 122.461 90.676 122.461 96.148C122.461 102.556 125.953 106.696 131.389 106.696C136.753 106.696 140.245 102.52 140.245 96.148C140.245 89.812 136.753 85.708 131.317 85.708ZM166.732 83.368V109H163.348V97.012H149.812V109H146.428V83.368H149.812V94.06H163.348V83.368H166.732ZM192.677 99.316C192.101 105.832 187.925 109.612 181.589 109.612C174.281 109.612 169.709 104.428 169.709 96.22C169.709 88.876 173.957 82.792 181.841 82.792C186.881 82.792 191.957 85.6 192.461 91.072H189.077C188.321 87.724 185.585 85.708 181.769 85.708C175.685 85.708 173.129 90.784 173.129 96.184C173.129 102.7 176.405 106.696 181.733 106.696C186.089 106.696 188.753 104.104 189.293 99.316H192.677ZM216.317 83.368L205.517 93.664L216.749 109H212.429L203.141 95.968L198.893 100V109H195.509V83.368H198.893V96.076L211.889 83.368H216.317ZM218.081 109V83.368H221.465V105.076H221.537L234.101 83.368H238.385V109H235.001V87.22H234.929L222.329 109H218.081ZM258.173 76.636C257.705 79.516 255.905 81.604 252.773 81.604C249.785 81.604 247.661 79.516 247.301 76.636H249.137C249.641 78.364 250.901 79.444 252.737 79.444C254.609 79.444 255.761 78.364 256.337 76.636H258.173ZM242.621 109V83.368H246.005V105.076H246.077L258.641 83.368H262.925V109H259.541V87.22H259.469L246.869 109H242.621ZM296.046 83.368V109H292.662V86.32H279.126V109H275.742V83.368H296.046ZM311.082 82.756C319.038 82.756 323.394 88.336 323.394 95.968C323.394 103.492 319.254 109.612 311.118 109.612C302.91 109.612 298.842 103.348 298.842 95.896C298.842 87.904 303.63 82.756 311.082 82.756ZM311.082 85.708C305.034 85.708 302.226 90.676 302.226 96.148C302.226 102.556 305.718 106.696 311.154 106.696C316.518 106.696 320.01 102.52 320.01 96.148C320.01 89.812 316.518 85.708 311.082 85.708ZM359.005 109H354.757L345.397 96.256L342.373 99.424V109H339.061V99.424L336.037 96.256L326.677 109H322.429L333.805 93.88L323.581 83.368H327.829L339.061 95.284V83.368H342.373V95.284L353.605 83.368H357.853L347.629 93.88L359.005 109ZM370.885 83.368L380.893 109H377.113L374.269 101.152H363.505L360.589 109H356.989L367.069 83.368H370.885ZM373.261 98.452L368.905 86.608L364.477 98.452H373.261ZM382.168 83.368H392.716C397.612 83.368 401.248 85.42 401.248 90.748C401.248 96.544 397.504 98.488 392.5 98.488H385.552V109H382.168V83.368ZM385.552 86.284V95.644H392.068C395.344 95.644 397.864 94.744 397.864 90.964C397.864 86.86 394.948 86.284 391.6 86.284H385.552Z" fill="white"/>
<path d="M35.888 467.512V493H32.54V474.532H26.132V472.228C29.912 472.228 32.612 471.328 33.476 467.512H35.888ZM59.5639 474.1H56.4319C56.1079 471.724 54.7039 470.14 52.1119 470.14C46.6399 470.14 46.1719 476.548 45.9919 480.004C47.3959 477.736 49.6639 476.656 52.3279 476.656C57.0799 476.656 60.2479 479.932 60.2479 484.828C60.2479 489.76 57.0439 493.504 51.8599 493.504C44.4799 493.504 42.9679 486.772 42.9679 480.832C42.9679 474.712 44.6959 467.476 52.2199 467.476C56.5039 467.476 59.2399 469.924 59.5639 474.1ZM51.7879 479.32C48.6919 479.32 46.5679 481.588 46.5679 484.972C46.5679 488.5 48.7279 490.768 51.8599 490.768C54.9199 490.768 57.0079 488.572 57.0079 485.116C57.0079 481.552 54.9919 479.32 51.7879 479.32ZM78.1278 474.1H74.9958C74.6718 471.724 73.2678 470.14 70.6758 470.14C65.2038 470.14 64.7358 476.548 64.5558 480.004C65.9598 477.736 68.2278 476.656 70.8918 476.656C75.6438 476.656 78.8118 479.932 78.8118 484.828C78.8118 489.76 75.6078 493.504 70.4238 493.504C63.0438 493.504 61.5318 486.772 61.5318 480.832C61.5318 474.712 63.2598 467.476 70.7838 467.476C75.0678 467.476 77.8038 469.924 78.1278 474.1ZM70.3518 479.32C67.2558 479.32 65.1318 481.588 65.1318 484.972C65.1318 488.5 67.2918 490.768 70.4238 490.768C73.4838 490.768 75.5718 488.572 75.5718 485.116C75.5718 481.552 73.5558 479.32 70.3518 479.32ZM96.6917 474.1H93.5597C93.2357 471.724 91.8317 470.14 89.2397 470.14C83.7677 470.14 83.2997 476.548 83.1197 480.004C84.5237 477.736 86.7917 476.656 89.4557 476.656C94.2077 476.656 97.3757 479.932 97.3757 484.828C97.3757 489.76 94.1717 493.504 88.9877 493.504C81.6077 493.504 80.0957 486.772 80.0957 480.832C80.0957 474.712 81.8237 467.476 89.3477 467.476C93.6317 467.476 96.3677 469.924 96.6917 474.1ZM88.9157 479.32C85.8197 479.32 83.6957 481.588 83.6957 484.972C83.6957 488.5 85.8557 490.768 88.9877 490.768C92.0477 490.768 94.1357 488.572 94.1357 485.116C94.1357 481.552 92.1197 479.32 88.9157 479.32Z" fill="white"/>
<path d="M281.608 467.368L291.616 493H287.836L284.992 485.152H274.228L271.312 493H267.712L277.792 467.368H281.608ZM283.984 482.452L279.628 470.608L275.2 482.452H283.984ZM313.052 467.368V493H309.668V481.012H296.132V493H292.748V467.368H296.132V478.06H309.668V467.368H313.052ZM320.672 493H317.288V467.368H334.136V470.32H320.672V493ZM352.783 467.368V493H349.399V470.32H339.931L339.427 484.756C339.247 489.904 337.375 493.54 333.487 493.54C332.767 493.54 331.687 493.288 331.039 493.036V490.156C331.507 490.444 332.479 490.516 332.875 490.516C334.711 490.516 336.043 489.508 336.223 482.992L336.691 467.368H352.783ZM357.088 493V467.368H360.472V489.076H360.544L373.108 467.368H377.392V493H374.008V471.22H373.936L361.336 493H357.088ZM391.276 482.056L382.816 493H378.64L387.208 481.948C383.212 481.408 380.836 478.996 380.836 474.712C380.836 469.888 383.932 467.368 388.936 467.368H399.952V493H396.568V482.056H391.276ZM396.568 479.176V470.248H390.088C386.344 470.248 384.256 471.58 384.256 474.712C384.256 477.88 386.308 479.176 390.088 479.176H396.568Z" fill="white"/>
<path d="M121.109 413.331C138.218 441.607 193.643 445 209.683 445C259.354 445 308.953 426.827 316.434 382.307C320.208 359.854 303.959 341.751 301.464 325.755C299.553 313.501 308.593 294.732 308.593 294.732C308.593 294.732 297.543 296.671 289.524 323.008C284.621 339.107 308.593 359.202 286.138 365.665C278.133 367.969 284.497 353.849 282.573 346.437C280.435 338.2 275.874 334.208 275.445 325.755C274.838 313.795 284.966 308.596 286.138 296.671C287.182 286.037 279.818 279.905 282.573 269.525C283.511 265.993 286.138 260.8 286.138 260.8C286.138 260.8 272.13 260.522 270.276 266.294C266.177 279.058 266.177 294.732 261.365 291.985C250.043 285.522 268.144 261.899 266.177 252.075C264.21 242.25 261.267 237.025 256.197 228.161C248.712 215.073 252.276 204.571 252.276 204.571C252.276 204.571 244.047 213.258 242.118 220.082C239.061 230.896 250.938 239.31 248.712 248.035C247.344 253.398 247.389 263.531 242.118 260.8C235.88 257.568 240.749 241.627 238.019 229.615C234.199 212.808 225.846 204.849 222.692 187.928C220.231 174.723 224.475 166.438 220.91 153.673C218.327 144.423 200.237 138 200.237 138C200.237 138 207.383 149.67 209.504 157.874C213.443 173.109 206.439 180.954 205.584 197.784C204.728 214.614 219.306 245.995 205.584 240.926C195.96 237.371 207.635 212.488 200.237 197.784C197.476 192.297 188.831 186.312 188.831 186.312C188.831 186.312 191.148 193.23 191.148 197.784C191.148 212.488 183.2 222.991 186.336 243.188C188.863 259.46 200.237 269.525 202.554 282.613C204.017 290.877 206.831 302.487 200.237 303.942C193.643 305.396 200.137 286.268 193.643 277.443C188.88 270.969 177.069 264.355 177.069 264.355C177.069 264.355 182.415 297.478 172.079 294.732C161.742 291.985 177.069 260.8 168.158 243.188C164.576 236.108 148.376 234.463 148.376 234.463C148.376 234.463 153.858 242.336 155.148 248.035C157.558 258.682 150.323 264.456 148.376 275.181C145.361 291.785 150.693 316.545 144.99 318.161C139.287 319.776 143.208 296.889 125.208 294.732C116.328 293.667 104 302.649 104 302.649C104 302.649 118.257 305.396 121.109 316.545C125.565 333.968 104 385.054 121.109 413.331Z" stroke="white" stroke-width="2"/>
<path d="M154.105 399.938C166.432 420.319 185.257 431.323 210.843 429.873C295.449 425.078 279.872 378.167 279.872 378.167C279.014 386.719 276.299 393.847 272.297 393.199C268.296 392.551 271.328 374.797 268.438 369.354C261.006 355.359 259.435 338.512 259.435 338.512C259.435 338.512 254.432 340.456 255.29 354.711C255.514 358.428 249.716 364.56 248.001 361.579C244.989 356.343 251.717 350.823 253.146 347.195C255.236 341.89 249.435 338.452 250.717 332.94C251.271 330.558 253.146 327.108 253.146 327.108C253.146 327.108 247.942 327.888 246.143 330.089C243.285 333.588 246.143 338.512 244.714 341.752C243.741 343.958 240.884 345.803 238.712 344.473C232.995 340.974 243.116 329.964 241.141 320.888C239.962 315.466 237.064 313.027 235.567 307.67C234.457 303.694 233.71 297.303 233.71 297.303C233.71 297.303 231.497 301.277 230.994 304.041C229.875 310.194 235.567 314.538 235.567 319.463C235.567 323.128 233.607 327.108 229.565 327.108C222.848 327.108 227.745 305.386 224.632 295.592C223.563 292.226 215.357 281 215.357 281C215.357 281 224.897 299.895 217.417 325.164C214.755 334.159 211.334 349.176 206.259 344.473C201.8 340.341 203.105 335.178 200.41 330.089C198.572 326.619 193.55 322.443 193.55 322.443C193.55 322.443 194.55 334.625 185.261 336.18C177.049 337.554 172.112 320.888 172.112 320.888C172.112 320.888 170.266 326.436 170.255 330.089C170.235 336.411 174.399 340.326 175.685 345.51C177.809 354.066 177.103 364.776 167.682 366.763C157 369.015 154.105 344.473 154.105 344.473C154.105 344.473 142.619 380.946 154.105 399.938Z" stroke="white" stroke-width="2"/>
</svg>
