<svg width="421" height="525" viewBox="0 0 421 525" fill="none" xmlns="http://www.w3.org/2000/svg">
<rect width="421" height="525" fill="#DB4C2F"/>
<path d="M74.4961 113H70.1406L58.0312 97.9609V113H54.5547V97.9609L42.4453 113H38.0898L51.3906 96.8281L40.1797 84.9727H44.5742L54.5547 95.7344V84.9727H58.0312V95.7344L68.0312 84.9727H72.4258L61.2148 96.8281L74.4961 113ZM77.875 84.9727H96.4102V88.2344H81.3516V96.0078H93.207V99.2305H81.3516V109.758H96.4102V113H77.875V84.9727ZM119.945 84.9727H123.441V113H119.945V99.3086H104.457V113H100.961V84.9727H104.457V96.0469H119.945V84.9727ZM155.434 94.6211L152.152 95.6953C150.785 91.2031 146.918 88.2539 141.918 88.2539C135.746 88.2539 131.254 92.8633 131.254 98.9766C131.254 105.031 135.727 109.699 141.918 109.699C146.957 109.699 150.824 106.73 152.172 102.121L155.512 103.156C153.793 108.996 148.441 113 141.918 113C133.949 113 127.719 106.984 127.719 98.9766C127.719 91.0664 133.852 84.9727 141.918 84.9727C148.324 84.9727 153.637 88.7422 155.434 94.6211ZM174.008 84.9922H178.617L166.312 96.8477C171.176 102.238 176.039 107.609 180.883 113H176.371C171.957 108.02 167.504 103.02 163.09 98.0195V113H159.594V84.9922H163.09V95.7734L174.008 84.9922ZM203.695 113V91.5742L186.02 113H184.164V84.9922H187.641V106.379C193.539 99.25 199.438 92.1211 205.316 84.9922H207.172V113H203.695ZM224.262 86.5742C223.461 85.8906 222.68 85.168 221.859 84.4844C223.695 82.2969 225.551 80.1289 227.387 77.9609C228.188 78.6445 228.988 79.3477 229.789 80.0508C227.953 82.2188 226.117 84.4062 224.262 86.5742ZM232.367 113V91.5742L214.691 113H212.836V84.9922H216.312V106.379C222.211 99.25 228.109 92.1211 233.988 84.9922H235.844V113H232.367ZM252.25 84.9727H254.105L266.391 100.285L278.676 84.9727H280.512V113H277.035V91.9062L266.371 105.344L255.746 91.9062V113H252.25V84.9727ZM306.352 113L304.027 107.258H289.711L287.406 113H283.715L295.18 84.9922H298.598L310.023 113H306.352ZM296.898 89.3086L291 104.016H302.738L296.898 89.3086ZM316.703 97.2188H325.336C326.684 97.2188 327.387 97.0625 328.031 96.8086C329.633 96.125 330.766 94.6797 330.766 92.7461C330.766 90.8125 329.633 89.3477 328.031 88.6836C327.406 88.4102 326.684 88.2734 325.316 88.2734H316.703V97.2188ZM316.703 113H313.227V84.9922H325.707C327.641 84.9922 328.852 85.2852 329.906 85.793C332.523 87.0039 334.223 89.5625 334.223 92.7266C334.223 95.832 332.523 98.4102 329.887 99.6406C328.852 100.148 327.641 100.441 325.707 100.441H316.703V113ZM367.406 84.9727H370.922V113H338.266V84.9727H341.762V109.738H352.836V84.9727H356.312V109.738H367.406V84.9727ZM107.27 129.973H110.766V158H107.27V144.309H91.7812V158H88.2852V129.973H91.7812V141.047H107.27V129.973ZM136.605 158L134.281 152.258H119.965L117.66 158H113.969L125.434 129.992H128.852L140.277 158H136.605ZM127.152 134.309L121.254 149.016H132.992L127.152 134.309ZM157.328 141.73H164.203C165.492 141.73 166.176 141.594 166.801 141.34C168.363 140.695 169.457 139.289 169.457 137.434C169.457 135.578 168.363 134.211 166.801 133.547C166.195 133.273 165.512 133.156 164.184 133.156H157.328V141.73ZM157.328 154.777H165.707C167.172 154.777 167.934 154.621 168.617 154.348C170.414 153.625 171.684 151.984 171.684 149.797C171.684 147.648 170.414 145.988 168.617 145.246C167.934 144.973 167.172 144.836 165.707 144.836H157.328V154.777ZM153.832 158V129.992H164.535C166.391 129.992 167.523 130.246 168.52 130.695C171.137 131.867 172.836 134.387 172.836 137.492C172.836 139.641 171.879 141.516 170.238 142.766C173.168 143.918 175.141 146.594 175.141 149.895C175.141 153.254 173.266 156.008 170.434 157.238C169.379 157.727 168.188 158 166.215 158H153.832ZM179.535 129.973H198.07V133.234H183.012V141.008H194.867V144.23H183.012V154.758H198.07V158H179.535V129.973ZM206.098 142.219H214.73C216.078 142.219 216.781 142.062 217.426 141.809C219.027 141.125 220.16 139.68 220.16 137.746C220.16 135.812 219.027 134.348 217.426 133.684C216.801 133.41 216.078 133.273 214.711 133.273H206.098V142.219ZM206.098 158H202.621V129.992H215.102C217.035 129.992 218.246 130.285 219.301 130.793C221.918 132.004 223.617 134.562 223.617 137.727C223.617 140.832 221.918 143.41 219.281 144.641C218.246 145.148 217.035 145.441 215.102 145.441H206.098V158ZM254.008 139.621L250.727 140.695C249.359 136.203 245.492 133.254 240.492 133.254C234.32 133.254 229.828 137.863 229.828 143.977C229.828 150.031 234.301 154.699 240.492 154.699C245.531 154.699 249.398 151.73 250.746 147.121L254.086 148.156C252.367 153.996 247.016 158 240.492 158C232.523 158 226.293 151.984 226.293 143.977C226.293 136.066 232.426 129.973 240.492 129.973C246.898 129.973 252.211 133.742 254.008 139.621ZM277.191 158L274.867 152.258H260.551L258.246 158H254.555L266.02 129.992H269.438L280.863 158H277.191ZM267.738 134.309L261.84 149.016H273.578L267.738 134.309ZM290.766 129.992H308.617V158H305.141V133.273H294.262V147.453C294.262 149.484 294.027 151.105 293.402 152.59C292.328 155.695 290.023 158.02 286.391 158.02C285.004 158.02 283.656 157.688 282.387 157.004L284.008 153.879C284.75 154.309 285.551 154.523 286.391 154.523C288.344 154.523 289.633 153.43 290.258 151.242C290.648 150.188 290.766 148.996 290.766 147.277V129.992ZM331.781 149.973C331.781 147.883 330.57 146.281 328.852 145.598C328.188 145.305 327.465 145.188 326.059 145.188H317.758V154.738H326.059C327.465 154.738 328.188 154.582 328.852 154.309C330.57 153.586 331.781 152.043 331.781 149.973ZM335.219 149.973C335.219 153.273 333.441 155.949 330.727 157.16C329.633 157.707 328.402 158 326.43 158H314.262V129.992H317.758V141.945H326.43C328.402 141.945 329.613 142.238 330.707 142.766C333.441 143.996 335.219 146.711 335.219 149.973Z" fill="#FFD777"/>
<path d="M41.1074 471.793H48.6484V497H45.5195V474.729H41.1074V471.793ZM58.7397 497H55.2592L66.4389 474.729H51.3745V471.775H70.3061V473.604L58.7397 497ZM80.7313 474.693C77.9716 474.693 75.5985 476.24 75.5985 478.455C75.5985 480.652 77.954 482.199 80.7313 482.199C83.4911 482.199 85.8817 480.67 85.8817 478.455C85.8817 476.24 83.5262 474.693 80.7313 474.693ZM80.7313 484.854C77.6727 484.854 74.5614 486.541 74.5614 489.477C74.5614 492.359 77.6376 494.064 80.7313 494.064C83.8075 494.064 86.9012 492.377 86.9012 489.477C86.9012 486.559 83.8251 484.854 80.7313 484.854ZM85.6708 483.377C88.3251 484.678 90.0477 486.857 90.0477 489.582C90.0477 494.117 85.5477 497 80.7313 497C76.0028 497 71.4325 494.152 71.4325 489.582C71.4325 486.857 73.1552 484.678 75.8095 483.377C74.6845 482.621 72.5399 481.268 72.5399 478.314C72.5399 474.307 76.5302 471.775 80.7313 471.775C84.8973 471.775 88.9403 474.254 88.9403 478.314C88.9403 481.268 86.7958 482.621 85.6708 483.377ZM100.86 474.711C97.6605 474.711 95.0238 477.154 95.0238 480.283C95.0238 483.395 97.6077 485.891 100.86 485.891C104.076 485.891 106.696 483.447 106.696 480.283C106.696 477.189 104.112 474.711 100.86 474.711ZM101.897 488.352C101.334 488.439 100.789 488.492 100.262 488.492C95.2171 488.492 91.8948 484.555 91.8948 480.301C91.8948 475.537 95.8675 471.793 100.86 471.793C105.764 471.793 109.789 475.449 109.825 480.301C109.807 484.186 107.451 486.541 104.85 489.406L97.678 497H93.4769L101.897 488.352Z" fill="#FFD777"/>
<path d="M227.523 477.453V491.287C232.797 491.059 236.664 488.264 236.664 484.361C236.664 480.512 232.832 477.682 227.523 477.453ZM224.395 491.287V477.453C219.121 477.682 215.289 480.494 215.289 484.361C215.289 488.246 219.086 491.059 224.395 491.287ZM227.541 471.775V474.535C233.852 474.816 239.811 478.227 239.811 484.361C239.811 490.531 233.852 493.871 227.541 494.205V497H224.395V494.205C218.242 493.994 212.143 490.479 212.143 484.361C212.143 478.209 218.154 474.852 224.395 474.535V471.775H227.541ZM245.173 482.797H252.943C254.156 482.797 254.789 482.656 255.369 482.428C256.81 481.812 257.83 480.512 257.83 478.771C257.83 477.031 256.81 475.713 255.369 475.115C254.806 474.869 254.156 474.746 252.925 474.746H245.173V482.797ZM245.173 497H242.044V471.793H253.277C255.017 471.793 256.107 472.057 257.056 472.514C259.412 473.604 260.941 475.906 260.941 478.754C260.941 481.549 259.412 483.869 257.039 484.977C256.107 485.434 255.017 485.697 253.277 485.697H245.173V497ZM278.995 497L276.903 491.832H264.018L261.944 497H258.622L268.94 471.793H272.016L282.3 497H278.995ZM270.487 475.678L265.179 488.914H275.743L270.487 475.678ZM300.828 471.775H303.975V497H300.828V484.678H286.889V497H283.743V471.775H286.889V481.742H300.828V471.775ZM324.332 471.793H327.478V494.064H331.029V502.186H327.883V497H307.615V471.793H310.761V494.064H324.332V471.793ZM350.542 497V477.717L334.634 497H332.964V471.793H336.093V491.041C341.402 484.625 346.71 478.209 352.001 471.793H353.671V497H350.542ZM375.505 497H372.376V485.697H365.924L359.122 497H355.465L362.497 485.574C361.899 485.469 361.389 485.328 360.932 485.152C359.719 484.695 358.682 483.922 357.909 482.85C357.083 481.707 356.626 480.301 356.626 478.754C356.626 475.906 358.155 473.604 360.493 472.531C361.442 472.057 362.532 471.793 364.29 471.793H375.505V497ZM364.624 482.797H372.376V474.746H364.624C363.393 474.746 362.76 474.869 362.18 475.115C360.739 475.73 359.719 477.049 359.719 478.771C359.719 480.529 360.756 481.83 362.18 482.428C362.76 482.674 363.393 482.797 364.624 482.797Z" fill="#FFD777"/>
<rect x="13" width="12" height="525" fill="#FFD777"/>
<rect x="393" width="12" height="525" fill="#FFD777"/>
<path d="M230.999 233.174C230.999 233.174 236.015 225.885 240.689 226.101C245.089 226.304 249.497 233.174 249.497 233.174V261.47M230.999 233.174C230.999 233.174 225.386 225.897 220.429 226.101C215.755 226.292 210.74 233.174 210.74 233.174M230.999 233.174V261.47M210.74 233.174C210.74 233.174 205.94 225.216 201.051 225.216C196.162 225.216 191.362 233.174 191.362 233.174M210.74 233.174C210.74 233.174 210.74 247.312 210.74 255.275M191.362 233.174C191.362 233.174 185.948 225.413 180.792 225.216C175.357 225.009 169.341 233.174 169.341 233.174C169.341 233.174 169.341 246.108 169.341 254.396M191.362 233.174C191.362 233.174 191.362 246.108 191.362 254.396M169.341 254.396C176.327 248.201 182.554 252.623 191.362 254.396M169.341 254.396C163.995 261.47 162.295 282.691 162.295 282.691C162.295 282.691 161.775 288.12 162.295 291.533C164.625 306.833 193.124 316.292 193.124 316.292M210.74 255.275C203.173 255.275 204.513 256.159 191.362 254.396M210.74 255.275C210.74 259.691 210.74 264.117 210.74 264.117M193.124 316.292C193.124 316.292 203.725 314.689 208.098 310.102C211.289 306.755 213.383 299.492 213.383 299.492M193.124 316.292C193.124 316.292 193.124 333.537 193.124 344.587M230.999 261.47C230.999 261.47 236.382 266.953 240.689 266.775C244.697 266.61 249.497 261.47 249.497 261.47M230.999 261.47C230.999 261.47 226.596 266.775 220.429 266.775C216.026 266.775 210.74 264.117 210.74 264.117M249.497 261.47V297.723C249.497 297.723 245.755 304.125 242.45 307.45C238.609 311.315 230.999 315.408 230.999 315.408C230.999 315.408 230.999 333.192 230.999 344.587M210.74 264.117L187.839 276.502M187.839 276.502C187.839 276.502 188.72 280.918 187.839 282.691M187.839 276.502C187.839 276.502 186.078 272.96 182.554 272.08M193.124 344.587C193.124 359.781 193.124 383.493 193.124 383.493H157.89V419.747H194.005V456H230.999V419.747H267.113V383.493H230.999C230.999 383.493 230.999 359.781 230.999 344.587M193.124 344.587C152.3 336.376 125.544 302.353 127.061 260.585C128.675 216.173 163.829 181.483 208.098 181.005C252.861 180.522 288.826 215.695 290.896 260.585C292.754 300.885 269.599 333.359 230.999 344.587" stroke="#FFD777" stroke-width="3"/>
</svg>
