<svg width="421" height="525" viewBox="0 0 421 525" fill="none" xmlns="http://www.w3.org/2000/svg">
<rect width="421" height="525" fill="#217D7A"/>
<path d="M100.157 70.248C101.565 70.536 102.877 70.984 104.093 71.592C105.309 72.168 106.301 72.952 107.069 73.944C107.837 74.936 108.221 76.2 108.221 77.736C108.221 79.208 107.837 80.552 107.069 81.768C106.333 82.952 105.325 83.976 104.045 84.84C102.797 85.672 101.373 86.328 99.7728 86.808C98.2048 87.256 96.5728 87.48 94.8768 87.48C92.9248 87.48 91.2288 87.192 89.7888 86.616C88.3808 86.008 87.2928 85.208 86.5248 84.216C85.7888 83.224 85.4208 82.136 85.4208 80.952C85.4208 79.8 85.7408 78.888 86.3808 78.216C87.0528 77.512 87.7888 77.16 88.5888 77.16C89.2608 77.16 89.8048 77.384 90.2208 77.832C90.6368 78.28 90.8448 78.824 90.8448 79.464C90.8448 80.264 90.5408 80.952 89.9328 81.528C89.3568 82.072 88.7328 82.376 88.0608 82.44C88.7008 83.592 89.6608 84.408 90.9408 84.888C92.2208 85.336 93.5968 85.56 95.0688 85.56C98.0768 85.56 100.253 84.84 101.597 83.4C102.973 81.928 103.661 80.12 103.661 77.976C103.661 76.536 103.357 75.336 102.749 74.376C102.141 73.384 101.197 72.648 99.9168 72.168C98.6688 71.656 97.0208 71.4 94.9728 71.4L95.2128 69.72C96.1408 69.72 97.1168 69.592 98.1408 69.336C99.1968 69.048 100.189 68.6 101.117 67.992C102.045 67.352 102.797 66.52 103.373 65.496C103.949 64.472 104.237 63.224 104.237 61.752C104.237 59.8 103.709 58.408 102.653 57.576C101.629 56.712 100.269 56.28 98.5728 56.28C96.9728 56.28 95.5328 56.616 94.2528 57.288C93.0048 57.928 92.1088 58.76 91.5648 59.784C92.2368 59.784 92.7808 60.024 93.1968 60.504C93.6448 60.952 93.8688 61.496 93.8688 62.136C93.8688 62.936 93.5648 63.624 92.9568 64.2C92.3488 64.776 91.6448 65.064 90.8448 65.064C90.2048 65.064 89.6608 64.84 89.2128 64.392C88.7968 63.944 88.5888 63.32 88.5888 62.52C88.5888 61.688 88.8288 60.808 89.3088 59.88C89.8208 58.92 90.5568 58.024 91.5168 57.192C92.4768 56.36 93.6448 55.688 95.0208 55.176C96.4288 54.632 98.0288 54.36 99.8208 54.36C101.005 54.36 102.141 54.504 103.229 54.792C104.317 55.048 105.277 55.464 106.109 56.04C106.973 56.584 107.645 57.288 108.125 58.152C108.637 59.016 108.893 60.04 108.893 61.224C108.893 62.76 108.477 64.136 107.645 65.352C106.845 66.536 105.773 67.544 104.429 68.376C103.117 69.208 101.693 69.832 100.157 70.248ZM122.368 64.44C124.064 64.44 125.552 64.84 126.832 65.64C128.112 66.44 129.104 67.56 129.808 69C130.512 70.44 130.864 72.12 130.864 74.04C130.864 75.8 130.56 77.496 129.952 79.128C129.376 80.728 128.56 82.152 127.504 83.4C126.448 84.648 125.2 85.64 123.76 86.376C122.32 87.112 120.752 87.48 119.056 87.48C117.36 87.48 115.872 87.08 114.592 86.28C113.312 85.48 112.32 84.36 111.616 82.92C110.912 81.448 110.56 79.768 110.56 77.88C110.56 76.12 110.848 74.44 111.424 72.84C112.032 71.208 112.864 69.768 113.92 68.52C114.976 67.272 116.224 66.28 117.664 65.544C119.104 64.808 120.672 64.44 122.368 64.44ZM119.488 85.8C120.608 85.8 121.616 85.48 122.512 84.84C123.408 84.2 124.176 83.336 124.816 82.248C125.456 81.128 125.936 79.848 126.256 78.408C126.608 76.968 126.784 75.448 126.784 73.848C126.784 72.088 126.576 70.648 126.16 69.528C125.744 68.376 125.168 67.528 124.432 66.984C123.696 66.408 122.864 66.12 121.936 66.12C120.816 66.12 119.808 66.44 118.912 67.08C118.016 67.72 117.248 68.6 116.608 69.72C115.968 70.808 115.472 72.072 115.12 73.512C114.8 74.952 114.64 76.472 114.64 78.072C114.64 79.832 114.848 81.288 115.264 82.44C115.68 83.56 116.256 84.408 116.992 84.984C117.728 85.528 118.56 85.8 119.488 85.8ZM132.813 87.48C131.917 87.48 131.213 87.272 130.701 86.856C130.189 86.44 129.933 85.896 129.933 85.224C129.933 84.456 130.189 83.8 130.701 83.256C131.213 82.712 131.917 82.44 132.813 82.44C133.357 82.44 133.837 82.6 134.253 82.92C134.701 83.24 134.957 83.768 135.021 84.504C135.853 83.928 136.589 82.936 137.229 81.528C137.901 80.12 138.461 78.52 138.909 76.728C139.389 74.936 139.773 73.16 140.061 71.4C140.381 69.64 140.605 68.12 140.733 66.84L140.493 66.6H136.653L136.893 64.92H155.613L155.373 66.6H151.725L151.485 66.84L149.325 82.344C149.197 83.336 149.229 84.088 149.421 84.6C149.613 85.08 149.933 85.32 150.381 85.32C150.925 85.32 151.453 85.016 151.965 84.408C152.509 83.768 153.037 82.952 153.549 81.96L155.037 82.776C154.237 84.504 153.373 85.72 152.445 86.424C151.549 87.128 150.541 87.48 149.421 87.48C148.109 87.48 147.101 87.032 146.397 86.136C145.693 85.208 145.485 83.72 145.773 81.672L147.885 66.84L147.645 66.6H142.893L142.653 66.84C142.557 67.864 142.397 69.08 142.173 70.488C141.949 71.864 141.661 73.336 141.309 74.904C140.989 76.44 140.573 77.96 140.061 79.464C139.549 80.936 138.941 82.28 138.237 83.496C137.565 84.712 136.781 85.688 135.885 86.424C134.989 87.128 133.965 87.48 132.813 87.48ZM168.637 64.44C170.333 64.44 171.821 64.84 173.101 65.64C174.381 66.44 175.373 67.56 176.077 69C176.781 70.44 177.133 72.12 177.133 74.04C177.133 75.8 176.829 77.496 176.221 79.128C175.645 80.728 174.829 82.152 173.773 83.4C172.717 84.648 171.469 85.64 170.029 86.376C168.589 87.112 167.021 87.48 165.325 87.48C163.629 87.48 162.141 87.08 160.861 86.28C159.581 85.48 158.589 84.36 157.885 82.92C157.181 81.448 156.829 79.768 156.829 77.88C156.829 76.12 157.117 74.44 157.693 72.84C158.301 71.208 159.133 69.768 160.189 68.52C161.245 67.272 162.493 66.28 163.933 65.544C165.373 64.808 166.941 64.44 168.637 64.44ZM165.757 85.8C166.877 85.8 167.885 85.48 168.781 84.84C169.677 84.2 170.445 83.336 171.085 82.248C171.725 81.128 172.205 79.848 172.525 78.408C172.877 76.968 173.053 75.448 173.053 73.848C173.053 72.088 172.845 70.648 172.429 69.528C172.013 68.376 171.437 67.528 170.701 66.984C169.965 66.408 169.133 66.12 168.205 66.12C167.085 66.12 166.077 66.44 165.181 67.08C164.285 67.72 163.517 68.6 162.877 69.72C162.237 70.808 161.741 72.072 161.389 73.512C161.069 74.952 160.909 76.472 160.909 78.072C160.909 79.832 161.117 81.288 161.533 82.44C161.949 83.56 162.525 84.408 163.261 84.984C163.997 85.528 164.829 85.8 165.757 85.8ZM214.986 81.96L216.474 82.776C215.674 84.504 214.81 85.72 213.882 86.424C212.986 87.128 211.978 87.48 210.858 87.48C209.546 87.48 208.522 87.032 207.786 86.136C207.082 85.208 206.89 83.72 207.21 81.672L208.746 71.688C208.874 70.984 208.906 70.248 208.842 69.48C208.778 68.68 208.538 68.008 208.122 67.464C207.738 66.888 207.066 66.6 206.106 66.6C205.594 66.6 204.986 66.696 204.282 66.888C203.61 67.08 202.922 67.448 202.218 67.992C201.514 68.536 200.89 69.336 200.346 70.392C199.802 71.448 199.402 72.824 199.146 74.52L197.37 87H193.77L195.882 71.688C195.978 70.984 195.994 70.248 195.93 69.48C195.898 68.68 195.674 68.008 195.258 67.464C194.874 66.888 194.202 66.6 193.242 66.6C192.73 66.6 192.122 66.712 191.418 66.936C190.714 67.128 190.01 67.528 189.306 68.136C188.602 68.712 187.962 69.576 187.386 70.728C186.842 71.848 186.442 73.336 186.186 75.192L184.554 87H180.906L183.738 66.84L183.498 66.6H179.946L180.186 64.92C181.434 64.92 182.586 64.904 183.642 64.872C184.73 64.84 185.914 64.776 187.194 64.68L187.434 64.92L186.906 68.328H187.146C187.754 67.304 188.634 66.408 189.786 65.64C190.938 64.84 192.346 64.44 194.01 64.44C195.61 64.44 196.89 64.84 197.85 65.64C198.81 66.408 199.402 67.448 199.626 68.76C200.234 67.544 201.194 66.52 202.506 65.688C203.85 64.856 205.306 64.44 206.874 64.44C208.89 64.44 210.41 65.064 211.434 66.312C212.458 67.56 212.81 69.192 212.49 71.208L210.762 82.344C210.602 83.336 210.618 84.088 210.81 84.6C211.034 85.08 211.37 85.32 211.818 85.32C212.362 85.32 212.89 85.016 213.402 84.408C213.946 83.768 214.474 82.952 214.986 81.96ZM229.579 64.44C231.275 64.44 232.763 64.84 234.043 65.64C235.323 66.44 236.315 67.56 237.019 69C237.723 70.44 238.075 72.12 238.075 74.04C238.075 75.8 237.771 77.496 237.163 79.128C236.587 80.728 235.771 82.152 234.715 83.4C233.659 84.648 232.411 85.64 230.971 86.376C229.531 87.112 227.963 87.48 226.267 87.48C224.571 87.48 223.083 87.08 221.803 86.28C220.523 85.48 219.531 84.36 218.827 82.92C218.123 81.448 217.771 79.768 217.771 77.88C217.771 76.12 218.059 74.44 218.635 72.84C219.243 71.208 220.075 69.768 221.131 68.52C222.187 67.272 223.435 66.28 224.875 65.544C226.315 64.808 227.883 64.44 229.579 64.44ZM226.699 85.8C227.819 85.8 228.827 85.48 229.723 84.84C230.619 84.2 231.387 83.336 232.027 82.248C232.667 81.128 233.147 79.848 233.467 78.408C233.819 76.968 233.995 75.448 233.995 73.848C233.995 72.088 233.787 70.648 233.371 69.528C232.955 68.376 232.379 67.528 231.643 66.984C230.907 66.408 230.075 66.12 229.147 66.12C228.027 66.12 227.019 66.44 226.123 67.08C225.227 67.72 224.459 68.6 223.819 69.72C223.179 70.808 222.683 72.072 222.331 73.512C222.011 74.952 221.851 76.472 221.851 78.072C221.851 79.832 222.059 81.288 222.475 82.44C222.891 83.56 223.467 84.408 224.203 84.984C224.939 85.528 225.771 85.8 226.699 85.8ZM262.92 81.96L264.408 82.776C263.608 84.504 262.744 85.72 261.816 86.424C260.92 87.128 259.912 87.48 258.792 87.48C257.704 87.48 256.808 87.16 256.104 86.52C255.432 85.88 255.08 84.856 255.048 83.448C254.408 84.536 253.512 85.48 252.36 86.28C251.208 87.08 249.784 87.48 248.088 87.48C246.072 87.48 244.568 86.856 243.576 85.608C242.616 84.36 242.28 82.712 242.568 80.664L244.44 66.84L244.2 66.6H240.648L240.888 64.92C242.136 64.92 243.32 64.904 244.44 64.872C245.592 64.84 246.808 64.776 248.088 64.68L248.328 64.92L246.168 80.76C246.072 81.496 246.088 82.216 246.216 82.92C246.376 83.624 246.696 84.2 247.176 84.648C247.656 85.096 248.312 85.32 249.144 85.32C250.808 85.32 252.248 84.488 253.464 82.824C254.712 81.128 255.544 78.856 255.96 76.008L257.304 66.84L257.064 66.6H253.512L253.752 64.92C255 64.92 256.184 64.904 257.304 64.872C258.456 64.84 259.672 64.776 260.952 64.68L261.192 64.92L258.696 82.344C258.568 83.336 258.6 84.088 258.792 84.6C258.984 85.08 259.304 85.32 259.752 85.32C260.296 85.32 260.824 85.016 261.336 84.408C261.88 83.768 262.408 82.952 262.92 81.96ZM246.552 56.328C246.552 55.656 246.824 55.096 247.368 54.648C247.912 54.2 248.52 53.976 249.192 53.976C249.768 53.976 250.232 54.152 250.584 54.504C250.936 54.856 251.112 55.256 251.112 55.704C251.112 56.12 250.936 56.52 250.584 56.904C250.264 57.288 249.976 57.56 249.72 57.72C249.976 58.04 250.344 58.264 250.824 58.392C251.336 58.488 251.944 58.536 252.648 58.536C253.32 58.536 253.944 58.472 254.52 58.344C255.128 58.216 255.592 57.992 255.912 57.672C255.688 57.512 255.48 57.288 255.288 57C255.128 56.712 255.048 56.424 255.048 56.136C255.048 55.528 255.288 55.016 255.768 54.6C256.28 54.184 256.856 53.976 257.496 53.976C258.04 53.976 258.504 54.152 258.888 54.504C259.304 54.856 259.512 55.32 259.512 55.896C259.512 56.76 259.128 57.496 258.36 58.104C257.592 58.712 256.664 59.176 255.576 59.496C254.488 59.816 253.448 59.976 252.456 59.976C251.56 59.976 250.648 59.848 249.72 59.592C248.824 59.336 248.072 58.952 247.464 58.44C246.856 57.896 246.552 57.192 246.552 56.328ZM282.503 87.48C280.071 87.48 278.183 86.68 276.839 85.08C275.495 83.48 274.823 81.176 274.823 78.168C274.823 75.32 275.383 72.872 276.503 70.824C277.623 68.776 279.127 67.208 281.015 66.12C282.935 65 285.047 64.44 287.351 64.44C289.111 64.44 290.631 64.792 291.911 65.496C293.223 66.168 293.879 67.256 293.879 68.76C293.879 69.912 293.463 70.968 292.631 71.928C291.799 72.856 290.647 73.656 289.175 74.328C287.735 75 286.087 75.544 284.231 75.96C282.375 76.376 280.439 76.664 278.423 76.824V75.288C280.087 75.128 281.607 74.888 282.983 74.568C284.391 74.216 285.607 73.784 286.631 73.272C287.687 72.728 288.503 72.104 289.079 71.4C289.655 70.696 289.943 69.896 289.943 69C289.943 68.2 289.687 67.528 289.175 66.984C288.663 66.408 287.831 66.12 286.679 66.12C285.271 66.12 283.975 66.6 282.791 67.56C281.607 68.488 280.663 69.88 279.959 71.736C279.255 73.592 278.903 75.88 278.903 78.6C278.903 81.224 279.271 83.08 280.007 84.168C280.743 85.256 281.815 85.8 283.223 85.8C284.343 85.8 285.303 85.56 286.103 85.08C286.903 84.568 287.511 83.848 287.927 82.92C288.375 81.992 288.599 80.904 288.599 79.656C288.599 78.28 288.327 77.24 287.783 76.536C287.271 75.8 286.471 75.304 285.383 75.048L287.639 74.472C288.247 74.536 288.839 74.68 289.415 74.904C290.023 75.096 290.551 75.384 290.999 75.768C291.479 76.12 291.847 76.584 292.103 77.16C292.391 77.704 292.535 78.376 292.535 79.176C292.535 80.648 292.071 82.024 291.143 83.304C290.247 84.552 289.031 85.56 287.495 86.328C285.991 87.096 284.327 87.48 282.503 87.48ZM304.418 87.48C302.658 87.48 301.138 87.112 299.858 86.376C298.578 85.608 297.586 84.504 296.882 83.064C296.178 81.624 295.826 79.896 295.826 77.88C295.826 75.288 296.37 72.984 297.458 70.968C298.578 68.92 300.082 67.32 301.97 66.168C303.89 65.016 306.034 64.44 308.402 64.44C309.458 64.44 310.466 64.584 311.426 64.872C312.418 65.128 313.218 65.576 313.826 66.216C314.434 66.824 314.738 67.656 314.738 68.712C314.738 69.832 314.322 70.856 313.49 71.784C312.658 72.712 311.506 73.528 310.034 74.232C308.594 74.936 306.946 75.512 305.09 75.96C303.234 76.376 301.298 76.664 299.282 76.824V75.288C300.882 75.128 302.37 74.872 303.746 74.52C305.154 74.168 306.386 73.736 307.442 73.224C308.498 72.68 309.314 72.056 309.89 71.352C310.498 70.616 310.802 69.816 310.802 68.952C310.802 68.088 310.546 67.4 310.034 66.888C309.554 66.376 308.834 66.12 307.874 66.12C306.69 66.12 305.602 66.424 304.61 67.032C303.618 67.64 302.754 68.488 302.018 69.576C301.282 70.664 300.722 71.928 300.338 73.368C299.954 74.776 299.762 76.312 299.762 77.976C299.762 79.768 299.986 81.224 300.434 82.344C300.914 83.464 301.554 84.28 302.354 84.792C303.186 85.304 304.13 85.56 305.186 85.56C306.562 85.56 307.81 85.112 308.93 84.216C310.082 83.32 310.994 82.312 311.666 81.192L313.154 82.008C312.674 82.872 312.018 83.72 311.186 84.552C310.386 85.384 309.426 86.088 308.306 86.664C307.186 87.208 305.89 87.48 304.418 87.48ZM321.172 85.08L321.412 85.32H324.964L324.724 87H313.204L313.444 85.32H317.092L317.332 85.08L319.876 66.84L319.636 66.6H316.084L316.324 64.92H327.844L327.604 66.6H323.956L323.716 66.84L321.172 85.08ZM330.772 87L327.364 79.176C326.852 77.992 326.052 77.24 324.964 76.92C323.908 76.6 322.724 76.44 321.412 76.44L321.652 74.76H323.092C324.82 74.76 326.18 74.84 327.172 75C328.196 75.128 328.996 75.432 329.572 75.912C330.18 76.36 330.692 77.096 331.108 78.12L333.076 82.824C333.492 83.784 334.132 84.408 334.996 84.696C335.892 84.984 336.788 85.192 337.684 85.32L337.444 87H330.772ZM337.06 64.44C337.956 64.44 338.676 64.696 339.22 65.208C339.764 65.72 340.036 66.392 340.036 67.224C340.036 68.056 339.716 68.776 339.076 69.384C338.436 69.96 337.652 70.248 336.724 70.248C336.02 70.248 335.428 70.008 334.948 69.528C334.468 69.016 334.26 68.264 334.324 67.272C333.556 67.752 332.9 68.36 332.356 69.096C331.812 69.832 331.252 70.6 330.676 71.4C330.132 72.168 329.476 72.904 328.708 73.608C327.972 74.28 327.028 74.84 325.876 75.288C324.724 75.704 323.252 75.912 321.46 75.912L321.652 74.76C323.124 74.76 324.356 74.52 325.348 74.04C326.372 73.528 327.252 72.888 327.988 72.12C328.724 71.32 329.396 70.488 330.004 69.624C330.644 68.728 331.284 67.896 331.924 67.128C332.564 66.328 333.284 65.688 334.084 65.208C334.916 64.696 335.908 64.44 337.06 64.44ZM112.855 130.96L114.343 131.776C113.543 133.504 112.679 134.72 111.751 135.424C110.855 136.128 109.847 136.48 108.727 136.48C107.415 136.48 106.391 136.032 105.655 135.136C104.951 134.208 104.759 132.72 105.079 130.672L106.615 120.688C106.743 119.984 106.775 119.248 106.711 118.48C106.647 117.68 106.391 117.008 105.943 116.464C105.527 115.888 104.791 115.6 103.735 115.6C103.159 115.6 102.503 115.712 101.767 115.936C101.031 116.128 100.295 116.528 99.5594 117.136C98.8554 117.712 98.2154 118.576 97.6394 119.728C97.0954 120.848 96.6954 122.336 96.4394 124.192L94.8074 136H91.1594L93.9914 115.84L93.7514 115.6H90.1994L90.4394 113.92C91.6874 113.92 92.8394 113.904 93.8954 113.872C94.9834 113.84 96.1674 113.776 97.4474 113.68L97.6874 113.92L97.1594 117.328H97.3994C98.0074 116.304 98.9034 115.408 100.087 114.64C101.271 113.84 102.743 113.44 104.503 113.44C106.647 113.44 108.231 114.064 109.255 115.312C110.311 116.56 110.679 118.192 110.359 120.208L108.631 131.344C108.503 132.336 108.535 133.088 108.727 133.6C108.919 134.08 109.239 134.32 109.687 134.32C110.231 134.32 110.759 134.016 111.271 133.408C111.815 132.768 112.343 131.952 112.855 130.96ZM137.921 130.96L139.409 131.776C138.609 133.504 137.745 134.72 136.817 135.424C135.921 136.128 134.913 136.48 133.793 136.48C132.705 136.48 131.809 136.16 131.105 135.52C130.433 134.88 130.081 133.856 130.049 132.448C129.409 133.536 128.513 134.48 127.361 135.28C126.209 136.08 124.785 136.48 123.089 136.48C121.073 136.48 119.569 135.856 118.577 134.608C117.617 133.36 117.281 131.712 117.569 129.664L119.441 115.84L119.201 115.6H115.649L115.889 113.92C117.137 113.92 118.321 113.904 119.441 113.872C120.593 113.84 121.809 113.776 123.089 113.68L123.329 113.92L121.169 129.76C121.073 130.496 121.089 131.216 121.217 131.92C121.377 132.624 121.697 133.2 122.177 133.648C122.657 134.096 123.313 134.32 124.145 134.32C125.809 134.32 127.249 133.488 128.465 131.824C129.713 130.128 130.545 127.856 130.961 125.008L132.305 115.84L132.065 115.6H128.513L128.753 113.92C130.001 113.92 131.185 113.904 132.305 113.872C133.457 113.84 134.673 113.776 135.953 113.68L136.193 113.92L133.697 131.344C133.569 132.336 133.601 133.088 133.793 133.6C133.985 134.08 134.305 134.32 134.753 134.32C135.297 134.32 135.825 134.016 136.337 133.408C136.881 132.768 137.409 131.952 137.921 130.96ZM136.17 148L136.41 146.32H140.154L140.394 146.08L144.618 115.84L144.378 115.6H140.826L141.066 113.92C142.314 113.92 143.45 113.904 144.474 113.872C145.53 113.84 146.698 113.776 147.978 113.68L148.218 113.92L147.738 117.376H147.882C148.618 116.224 149.61 115.28 150.858 114.544C152.106 113.808 153.498 113.44 155.034 113.44C156.602 113.44 157.962 113.824 159.114 114.592C160.266 115.328 161.162 116.416 161.802 117.856C162.474 119.264 162.81 120.992 162.81 123.04C162.81 124.992 162.522 126.8 161.946 128.464C161.37 130.096 160.57 131.52 159.546 132.736C158.554 133.92 157.418 134.848 156.138 135.52C154.89 136.16 153.562 136.48 152.154 136.48C150.97 136.48 149.786 136.176 148.602 135.568C147.45 134.96 146.57 133.904 145.962 132.4L144.042 146.08L144.282 146.32H149.754L149.514 148H136.17ZM146.586 127.072C146.586 129.536 147.066 131.36 148.026 132.544C148.986 133.728 150.202 134.32 151.674 134.32C153.21 134.32 154.506 133.776 155.562 132.688C156.618 131.568 157.402 130.128 157.914 128.368C158.458 126.608 158.73 124.752 158.73 122.8C158.73 120.4 158.33 118.608 157.53 117.424C156.762 116.208 155.626 115.6 154.122 115.6C152.618 115.6 151.29 116.16 150.138 117.28C149.018 118.368 148.138 119.792 147.498 121.552C146.89 123.28 146.586 125.12 146.586 127.072ZM165.482 126.88C165.482 124.896 165.77 123.088 166.346 121.456C166.922 119.824 167.706 118.416 168.698 117.232C169.722 116.016 170.874 115.088 172.154 114.448C173.434 113.776 174.762 113.44 176.138 113.44C177.002 113.44 177.85 113.6 178.682 113.92C179.546 114.208 180.314 114.704 180.986 115.408C181.69 116.08 182.218 117.008 182.57 118.192L184.826 113.92H186.506L184.106 131.344C183.978 132.336 184.01 133.088 184.202 133.6C184.394 134.08 184.714 134.32 185.162 134.32C185.706 134.32 186.234 134.016 186.746 133.408C187.29 132.768 187.818 131.952 188.33 130.96L189.818 131.776C189.018 133.504 188.154 134.72 187.226 135.424C186.33 136.128 185.322 136.48 184.202 136.48C183.114 136.48 182.218 136.16 181.514 135.52C180.842 134.848 180.49 133.824 180.458 132.448C179.658 133.728 178.634 134.72 177.386 135.424C176.138 136.128 174.762 136.48 173.258 136.48C171.722 136.48 170.362 136.112 169.178 135.376C168.026 134.608 167.114 133.52 166.442 132.112C165.802 130.672 165.482 128.928 165.482 126.88ZM169.562 127.12C169.562 129.52 169.962 131.328 170.762 132.544C171.562 133.728 172.698 134.32 174.17 134.32C175.706 134.32 177.034 133.776 178.154 132.688C179.274 131.568 180.138 130.144 180.746 128.416C181.386 126.656 181.706 124.8 181.706 122.848C181.706 120.384 181.226 118.56 180.266 117.376C179.306 116.192 178.09 115.6 176.618 115.6C175.082 115.6 173.786 116.16 172.73 117.28C171.706 118.368 170.922 119.792 170.378 121.552C169.834 123.28 169.562 125.136 169.562 127.12ZM226.403 130.96L227.891 131.776C227.091 133.504 226.227 134.72 225.299 135.424C224.403 136.128 223.395 136.48 222.275 136.48C220.963 136.48 219.939 136.032 219.203 135.136C218.499 134.208 218.307 132.72 218.627 130.672L220.163 120.688C220.291 119.984 220.323 119.248 220.259 118.48C220.195 117.68 219.955 117.008 219.539 116.464C219.155 115.888 218.483 115.6 217.523 115.6C217.011 115.6 216.403 115.696 215.699 115.888C215.027 116.08 214.339 116.448 213.635 116.992C212.931 117.536 212.307 118.336 211.763 119.392C211.219 120.448 210.819 121.824 210.563 123.52L208.787 136H205.187L207.299 120.688C207.395 119.984 207.411 119.248 207.347 118.48C207.315 117.68 207.091 117.008 206.675 116.464C206.291 115.888 205.619 115.6 204.659 115.6C204.147 115.6 203.539 115.712 202.835 115.936C202.131 116.128 201.427 116.528 200.723 117.136C200.019 117.712 199.379 118.576 198.803 119.728C198.259 120.848 197.859 122.336 197.603 124.192L195.971 136H192.323L195.155 115.84L194.915 115.6H191.363L191.603 113.92C192.851 113.92 194.003 113.904 195.059 113.872C196.147 113.84 197.331 113.776 198.611 113.68L198.851 113.92L198.323 117.328H198.563C199.171 116.304 200.051 115.408 201.203 114.64C202.355 113.84 203.763 113.44 205.427 113.44C207.027 113.44 208.307 113.84 209.267 114.64C210.227 115.408 210.819 116.448 211.043 117.76C211.651 116.544 212.611 115.52 213.923 114.688C215.267 113.856 216.723 113.44 218.291 113.44C220.307 113.44 221.827 114.064 222.851 115.312C223.875 116.56 224.227 118.192 223.907 120.208L222.179 131.344C222.019 132.336 222.035 133.088 222.227 133.6C222.451 134.08 222.787 134.32 223.235 134.32C223.779 134.32 224.307 134.016 224.819 133.408C225.363 132.768 225.891 131.952 226.403 130.96ZM237.732 136.48C236.452 136.48 235.284 136.272 234.228 135.856C233.172 135.408 232.26 134.784 231.492 133.984C230.756 133.152 230.18 132.144 229.764 130.96C229.38 129.776 229.188 128.448 229.188 126.976C229.188 125.12 229.492 123.376 230.1 121.744C230.708 120.112 231.556 118.672 232.644 117.424C233.732 116.176 234.996 115.2 236.436 114.496C237.876 113.792 239.428 113.44 241.092 113.44C242.404 113.44 243.556 113.664 244.548 114.112C245.572 114.528 246.356 115.12 246.9 115.888C247.476 116.624 247.764 117.472 247.764 118.432C247.764 119.328 247.524 120.096 247.044 120.736C246.564 121.344 245.94 121.648 245.172 121.648C244.564 121.648 244.084 121.456 243.732 121.072C243.412 120.688 243.252 120.192 243.252 119.584C243.252 118.848 243.492 118.176 243.972 117.568C244.452 116.96 245.092 116.656 245.892 116.656C246.532 116.656 246.932 116.848 247.092 117.232C247.284 117.616 247.38 118.032 247.38 118.48L245.94 118.816C245.94 118.08 245.748 117.44 245.364 116.896C245.012 116.32 244.5 115.888 243.828 115.6C243.188 115.28 242.404 115.12 241.476 115.12C240.132 115.12 238.948 115.44 237.924 116.08C236.932 116.72 236.084 117.6 235.38 118.72C234.676 119.808 234.148 121.072 233.796 122.512C233.444 123.92 233.268 125.392 233.268 126.928C233.268 129.648 233.764 131.6 234.756 132.784C235.78 133.968 237.028 134.56 238.5 134.56C239.972 134.56 241.204 134.112 242.196 133.216C243.22 132.288 244.084 131.28 244.788 130.192L246.276 131.008C245.732 131.936 245.076 132.816 244.308 133.648C243.572 134.48 242.66 135.168 241.572 135.712C240.516 136.224 239.236 136.48 237.732 136.48ZM284.204 130.96L285.692 131.776C284.892 133.504 284.028 134.72 283.1 135.424C282.204 136.128 281.196 136.48 280.076 136.48C278.764 136.48 277.74 136.032 277.004 135.136C276.3 134.208 276.108 132.72 276.428 130.672L277.964 120.688C278.092 119.984 278.124 119.248 278.06 118.48C277.996 117.68 277.756 117.008 277.34 116.464C276.956 115.888 276.284 115.6 275.324 115.6C274.812 115.6 274.204 115.696 273.5 115.888C272.828 116.08 272.14 116.448 271.436 116.992C270.732 117.536 270.108 118.336 269.564 119.392C269.02 120.448 268.62 121.824 268.364 123.52L266.588 136H262.988L265.1 120.688C265.196 119.984 265.212 119.248 265.148 118.48C265.116 117.68 264.892 117.008 264.476 116.464C264.092 115.888 263.42 115.6 262.46 115.6C261.948 115.6 261.34 115.712 260.636 115.936C259.932 116.128 259.228 116.528 258.524 117.136C257.82 117.712 257.18 118.576 256.604 119.728C256.06 120.848 255.66 122.336 255.404 124.192L253.772 136H250.124L252.956 115.84L252.716 115.6H249.164L249.404 113.92C250.652 113.92 251.804 113.904 252.86 113.872C253.948 113.84 255.132 113.776 256.412 113.68L256.652 113.92L256.124 117.328H256.364C256.972 116.304 257.852 115.408 259.004 114.64C260.156 113.84 261.564 113.44 263.228 113.44C264.828 113.44 266.108 113.84 267.068 114.64C268.028 115.408 268.62 116.448 268.844 117.76C269.452 116.544 270.412 115.52 271.724 114.688C273.068 113.856 274.524 113.44 276.092 113.44C278.108 113.44 279.628 114.064 280.652 115.312C281.676 116.56 282.028 118.192 281.708 120.208L279.98 131.344C279.82 132.336 279.836 133.088 280.028 133.6C280.252 134.08 280.588 134.32 281.036 134.32C281.58 134.32 282.108 134.016 282.62 133.408C283.164 132.768 283.692 131.952 284.204 130.96ZM294.668 136.48C292.236 136.48 290.348 135.68 289.004 134.08C287.66 132.48 286.988 130.176 286.988 127.168C286.988 124.32 287.548 121.872 288.668 119.824C289.788 117.776 291.292 116.208 293.18 115.12C295.1 114 297.212 113.44 299.516 113.44C301.276 113.44 302.796 113.792 304.076 114.496C305.388 115.168 306.044 116.256 306.044 117.76C306.044 118.912 305.628 119.968 304.796 120.928C303.964 121.856 302.812 122.656 301.34 123.328C299.9 124 298.252 124.544 296.396 124.96C294.54 125.376 292.604 125.664 290.588 125.824V124.288C292.252 124.128 293.772 123.888 295.148 123.568C296.556 123.216 297.772 122.784 298.796 122.272C299.852 121.728 300.668 121.104 301.244 120.4C301.82 119.696 302.108 118.896 302.108 118C302.108 117.2 301.852 116.528 301.34 115.984C300.828 115.408 299.996 115.12 298.844 115.12C297.436 115.12 296.14 115.6 294.956 116.56C293.772 117.488 292.828 118.88 292.124 120.736C291.42 122.592 291.068 124.88 291.068 127.6C291.068 130.224 291.436 132.08 292.172 133.168C292.908 134.256 293.98 134.8 295.388 134.8C296.508 134.8 297.468 134.56 298.268 134.08C299.068 133.568 299.676 132.848 300.092 131.92C300.54 130.992 300.764 129.904 300.764 128.656C300.764 127.28 300.492 126.24 299.948 125.536C299.436 124.8 298.636 124.304 297.548 124.048L299.804 123.472C300.412 123.536 301.004 123.68 301.58 123.904C302.188 124.096 302.716 124.384 303.164 124.768C303.644 125.12 304.012 125.584 304.268 126.16C304.556 126.704 304.7 127.376 304.7 128.176C304.7 129.648 304.236 131.024 303.308 132.304C302.412 133.552 301.196 134.56 299.66 135.328C298.156 136.096 296.492 136.48 294.668 136.48ZM307.991 126.88C307.991 124.896 308.279 123.088 308.855 121.456C309.431 119.824 310.215 118.416 311.207 117.232C312.231 116.016 313.383 115.088 314.663 114.448C315.943 113.776 317.271 113.44 318.647 113.44C319.511 113.44 320.359 113.6 321.191 113.92C322.055 114.208 322.823 114.704 323.495 115.408C324.199 116.08 324.727 117.008 325.079 118.192L327.335 113.92H329.015L326.615 131.344C326.487 132.336 326.519 133.088 326.711 133.6C326.903 134.08 327.223 134.32 327.671 134.32C328.215 134.32 328.743 134.016 329.255 133.408C329.799 132.768 330.327 131.952 330.839 130.96L332.327 131.776C331.527 133.504 330.663 134.72 329.735 135.424C328.839 136.128 327.831 136.48 326.711 136.48C325.623 136.48 324.727 136.16 324.023 135.52C323.351 134.848 322.999 133.824 322.967 132.448C322.167 133.728 321.143 134.72 319.895 135.424C318.647 136.128 317.271 136.48 315.767 136.48C314.231 136.48 312.871 136.112 311.687 135.376C310.535 134.608 309.623 133.52 308.951 132.112C308.311 130.672 307.991 128.928 307.991 126.88ZM312.071 127.12C312.071 129.52 312.471 131.328 313.271 132.544C314.071 133.728 315.207 134.32 316.679 134.32C318.215 134.32 319.543 133.776 320.663 132.688C321.783 131.568 322.647 130.144 323.255 128.416C323.895 126.656 324.215 124.8 324.215 122.848C324.215 120.384 323.735 118.56 322.775 117.376C321.815 116.192 320.599 115.6 319.127 115.6C317.591 115.6 316.295 116.16 315.239 117.28C314.215 118.368 313.431 119.792 312.887 121.552C312.343 123.28 312.071 125.136 312.071 127.12Z" fill="white"/>
<rect y="437" width="421" height="88" fill="#4ED4CF"/>
<path d="M31.1 496V475.444C30.644 475.972 30.008 476.524 29.192 477.1C28.4 477.652 27.632 478.132 26.888 478.54L26.24 477.352C26.528 477.208 26.948 476.956 27.5 476.596C28.076 476.212 28.676 475.768 29.3 475.264C29.948 474.736 30.548 474.184 31.1 473.608C31.652 473.032 32.072 472.456 32.36 471.88H34.34V496H31.1ZM26.24 496V494.74H30.92L31.1 494.56H34.34L34.52 494.74H39.2V496H26.24ZM50 496.36C48.944 496.36 47.888 496.156 46.832 495.748C45.8 495.316 44.852 494.632 43.988 493.696C43.148 492.76 42.464 491.548 41.936 490.06C41.432 488.548 41.18 486.712 41.18 484.552C41.18 481.864 41.576 479.548 42.368 477.604C43.184 475.66 44.324 474.16 45.788 473.104C47.276 472.048 49.004 471.52 50.972 471.52C52.172 471.52 53.288 471.736 54.32 472.168C55.352 472.576 56.18 473.152 56.804 473.896C57.452 474.64 57.776 475.504 57.776 476.488C57.776 477.16 57.572 477.7 57.164 478.108C56.78 478.516 56.312 478.72 55.76 478.72C55.232 478.72 54.776 478.528 54.392 478.144C54.008 477.76 53.816 477.28 53.816 476.704C53.816 476.368 53.924 476.02 54.14 475.66C54.356 475.3 54.764 475.012 55.364 474.796C54.932 474.148 54.296 473.68 53.456 473.392C52.616 473.104 51.788 472.96 50.972 472.96C48.668 472.96 47.024 473.968 46.04 475.984C45.08 478 44.6 480.784 44.6 484.336C44.6 486.976 44.84 489.076 45.32 490.636C45.824 492.172 46.496 493.276 47.336 493.948C48.176 494.596 49.112 494.92 50.144 494.92C51.56 494.92 52.7 494.428 53.564 493.444C54.428 492.436 54.86 490.912 54.86 488.872C54.86 486.832 54.404 485.332 53.492 484.372C52.604 483.412 51.512 482.932 50.216 482.932C49.04 482.932 47.912 483.304 46.832 484.048C45.776 484.768 44.792 485.872 43.88 487.36V485.38C44.504 484.324 45.356 483.412 46.436 482.644C47.54 481.876 48.896 481.492 50.504 481.492C51.416 481.492 52.328 481.636 53.24 481.924C54.152 482.212 54.98 482.656 55.724 483.256C56.492 483.856 57.104 484.612 57.56 485.524C58.04 486.436 58.28 487.504 58.28 488.728C58.28 490.408 57.872 491.824 57.056 492.976C56.24 494.104 55.196 494.956 53.924 495.532C52.676 496.084 51.368 496.36 50 496.36ZM67.6195 496.36C66.0115 496.36 64.6435 496.084 63.5155 495.532C62.3875 494.956 61.5235 494.236 60.9235 493.372C60.3475 492.484 60.0595 491.572 60.0595 490.636L62.2195 492.22C62.6275 493.012 63.2995 493.66 64.2355 494.164C65.1955 494.668 66.2395 494.92 67.3675 494.92C69.4795 494.92 71.0035 494.344 71.9395 493.192C72.8995 492.016 73.3795 490.528 73.3795 488.728C73.3795 486.808 72.8995 485.224 71.9395 483.976C70.9795 482.728 69.6475 482.104 67.9435 482.104C66.7675 482.104 65.6635 482.368 64.6315 482.896C63.5995 483.424 62.7955 484.144 62.2195 485.056L61.1395 484.768L62.2195 471.88H76.0075V474.76H63.5515L62.9755 482.356C63.4075 481.972 64.0555 481.6 64.9195 481.24C65.8075 480.856 66.9955 480.664 68.4835 480.664C70.1155 480.664 71.5555 480.988 72.8035 481.636C74.0515 482.284 75.0235 483.184 75.7195 484.336C76.4395 485.488 76.7995 486.82 76.7995 488.332C76.7995 489.868 76.4275 491.248 75.6835 492.472C74.9395 493.672 73.8715 494.62 72.4795 495.316C71.1115 496.012 69.4915 496.36 67.6195 496.36ZM62.2195 492.22L60.0595 490.636C60.0595 489.868 60.2515 489.28 60.6355 488.872C61.0435 488.464 61.5115 488.26 62.0395 488.26C62.5915 488.26 63.0595 488.452 63.4435 488.836C63.8275 489.22 64.0195 489.688 64.0195 490.24C64.0195 490.768 63.8395 491.224 63.4795 491.608C63.1195 491.968 62.6995 492.172 62.2195 492.22ZM88.0067 496.36C86.4227 496.36 84.9587 495.856 83.6147 494.848C82.2707 493.84 81.1907 492.412 80.3747 490.564C79.5827 488.692 79.1867 486.484 79.1867 483.94C79.1867 481.372 79.5827 479.164 80.3747 477.316C81.1907 475.468 82.2707 474.04 83.6147 473.032C84.9587 472.024 86.4227 471.52 88.0067 471.52C89.6147 471.52 91.0787 472.024 92.3987 473.032C93.7427 474.04 94.8107 475.468 95.6027 477.316C96.4187 479.164 96.8267 481.372 96.8267 483.94C96.8267 486.484 96.4187 488.692 95.6027 490.564C94.8107 492.412 93.7427 493.84 92.3987 494.848C91.0787 495.856 89.6147 496.36 88.0067 496.36ZM88.2947 494.92C89.5187 494.92 90.5027 494.476 91.2467 493.588C91.9907 492.7 92.5307 491.476 92.8667 489.916C93.2267 488.356 93.4067 486.568 93.4067 484.552C93.4067 482.008 93.1667 479.884 92.6867 478.18C92.2307 476.452 91.5707 475.156 90.7067 474.292C89.8667 473.404 88.8707 472.96 87.7187 472.96C86.5187 472.96 85.5347 473.404 84.7667 474.292C84.0227 475.18 83.4707 476.404 83.1107 477.964C82.7747 479.524 82.6067 481.312 82.6067 483.328C82.6067 485.872 82.8347 488.008 83.2907 489.736C83.7707 491.44 84.4307 492.736 85.2707 493.624C86.1347 494.488 87.1427 494.92 88.2947 494.92ZM98.4495 485.02H109.25V487.36H98.4495V485.02ZM117.345 496V475.444C116.889 475.972 116.253 476.524 115.437 477.1C114.645 477.652 113.877 478.132 113.133 478.54L112.485 477.352C112.773 477.208 113.193 476.956 113.745 476.596C114.321 476.212 114.921 475.768 115.545 475.264C116.193 474.736 116.793 474.184 117.345 473.608C117.897 473.032 118.317 472.456 118.605 471.88H120.585V496H117.345ZM112.485 496V494.74H117.165L117.345 494.56H120.585L120.765 494.74H125.445V496H112.485ZM143.697 471.88C143.697 473.128 143.517 474.292 143.157 475.372C142.797 476.428 142.341 477.46 141.789 478.468C141.237 479.476 140.649 480.508 140.025 481.564C139.425 482.62 138.873 483.76 138.369 484.984C137.865 486.208 137.469 487.564 137.181 489.052C136.917 490.54 136.857 492.22 137.001 494.092C137.049 494.812 136.893 495.376 136.533 495.784C136.173 496.168 135.729 496.36 135.201 496.36C134.673 496.36 134.241 496.168 133.905 495.784C133.569 495.376 133.401 494.812 133.401 494.092C133.401 492.412 133.629 490.852 134.085 489.412C134.565 487.972 135.153 486.616 135.849 485.344C136.569 484.048 137.325 482.812 138.117 481.636C138.909 480.46 139.641 479.308 140.313 478.18C141.009 477.052 141.537 475.912 141.897 474.76H135.813C134.421 474.76 133.257 474.844 132.321 475.012C131.409 475.156 130.665 475.492 130.089 476.02C129.537 476.548 129.093 477.388 128.757 478.54L127.569 478.18L128.973 471.88H143.697ZM153.978 496.36C152.418 496.36 151.05 496.108 149.874 495.604C148.722 495.1 147.822 494.44 147.174 493.624C146.526 492.784 146.202 491.908 146.202 490.996L148.362 492.58C148.962 493.444 149.766 494.056 150.774 494.416C151.782 494.752 152.826 494.92 153.906 494.92C155.898 494.92 157.338 494.476 158.226 493.588C159.138 492.7 159.594 491.416 159.594 489.736C159.594 488.584 159.33 487.612 158.802 486.82C158.274 486.004 157.47 485.38 156.39 484.948C155.334 484.516 154.002 484.3 152.394 484.3V483.04C153.378 483.04 154.47 483.136 155.67 483.328C156.894 483.52 158.058 483.868 159.162 484.372C160.29 484.852 161.214 485.524 161.934 486.388C162.654 487.228 163.014 488.296 163.014 489.592C163.014 490.648 162.762 491.596 162.258 492.436C161.778 493.276 161.118 493.996 160.278 494.596C159.438 495.172 158.478 495.616 157.398 495.928C156.318 496.216 155.178 496.36 153.978 496.36ZM148.362 492.58L146.202 490.996C146.202 490.228 146.394 489.64 146.778 489.232C147.186 488.824 147.654 488.62 148.182 488.62C148.734 488.62 149.202 488.812 149.586 489.196C149.97 489.58 150.162 490.048 150.162 490.6C150.162 491.128 149.982 491.584 149.622 491.968C149.262 492.328 148.842 492.532 148.362 492.58ZM148.614 479.548C148.086 479.548 147.618 479.344 147.21 478.936C146.826 478.504 146.634 477.916 146.634 477.172L148.614 475.588C148.998 475.588 149.334 475.684 149.622 475.876C149.91 476.044 150.138 476.284 150.306 476.596C150.498 476.884 150.594 477.208 150.594 477.568C150.594 478.12 150.402 478.588 150.018 478.972C149.634 479.356 149.166 479.548 148.614 479.548ZM152.394 483.94V483.04C153.042 483.04 153.702 482.956 154.374 482.788C155.07 482.596 155.718 482.296 156.318 481.888C156.918 481.48 157.398 480.928 157.758 480.232C158.142 479.512 158.334 478.624 158.334 477.568C158.334 476.008 157.878 474.856 156.966 474.112C156.054 473.344 154.89 472.96 153.474 472.96C152.298 472.96 151.266 473.212 150.378 473.716C149.514 474.196 148.926 474.82 148.614 475.588L146.634 477.172C146.634 476.332 146.91 475.48 147.462 474.616C148.038 473.752 148.89 473.02 150.018 472.42C151.146 471.82 152.55 471.52 154.23 471.52C155.19 471.52 156.114 471.64 157.002 471.88C157.89 472.096 158.694 472.444 159.414 472.924C160.134 473.38 160.698 473.968 161.106 474.688C161.538 475.384 161.754 476.212 161.754 477.172C161.754 478.3 161.478 479.296 160.926 480.16C160.374 481 159.642 481.708 158.73 482.284C157.818 482.836 156.81 483.256 155.706 483.544C154.602 483.808 153.498 483.94 152.394 483.94ZM173.303 496.36C171.719 496.36 170.255 495.856 168.911 494.848C167.567 493.84 166.487 492.412 165.671 490.564C164.879 488.692 164.483 486.484 164.483 483.94C164.483 481.372 164.879 479.164 165.671 477.316C166.487 475.468 167.567 474.04 168.911 473.032C170.255 472.024 171.719 471.52 173.303 471.52C174.911 471.52 176.375 472.024 177.695 473.032C179.039 474.04 180.107 475.468 180.899 477.316C181.715 479.164 182.123 481.372 182.123 483.94C182.123 486.484 181.715 488.692 180.899 490.564C180.107 492.412 179.039 493.84 177.695 494.848C176.375 495.856 174.911 496.36 173.303 496.36ZM173.591 494.92C174.815 494.92 175.799 494.476 176.543 493.588C177.287 492.7 177.827 491.476 178.163 489.916C178.523 488.356 178.703 486.568 178.703 484.552C178.703 482.008 178.463 479.884 177.983 478.18C177.527 476.452 176.867 475.156 176.003 474.292C175.163 473.404 174.167 472.96 173.015 472.96C171.815 472.96 170.831 473.404 170.063 474.292C169.319 475.18 168.767 476.404 168.407 477.964C168.071 479.524 167.903 481.312 167.903 483.328C167.903 485.872 168.131 488.008 168.587 489.736C169.067 491.44 169.727 492.736 170.567 493.624C171.431 494.488 172.439 494.92 173.591 494.92Z" fill="#217D7A"/>
<path d="M249.8 496V494.74H252.68L252.86 494.56V473.32L252.68 473.14H249.8V471.88H259.16V473.14H256.28L256.1 473.32V494.56L256.28 494.74H259.16V496H249.8ZM256.1 483.94V482.68C257.324 482.68 258.368 482.476 259.232 482.068C260.096 481.66 260.84 481.132 261.464 480.484C262.088 479.812 262.64 479.08 263.12 478.288C263.6 477.496 264.068 476.704 264.524 475.912C264.98 475.12 265.46 474.4 265.964 473.752C266.468 473.08 267.056 472.54 267.728 472.132C268.4 471.724 269.204 471.52 270.14 471.52C270.884 471.52 271.46 471.736 271.868 472.168C272.276 472.576 272.492 473.08 272.516 473.68C272.54 474.256 272.336 474.772 271.904 475.228C271.496 475.66 270.98 475.876 270.356 475.876C269.9 475.876 269.456 475.708 269.024 475.372C268.616 475.036 268.352 474.532 268.232 473.86C267.536 474.364 266.948 474.964 266.468 475.66C266.012 476.332 265.58 477.052 265.172 477.82C264.764 478.564 264.32 479.296 263.84 480.016C263.36 480.736 262.772 481.384 262.076 481.96C261.404 482.536 260.54 482.98 259.484 483.292L259.376 482.68C260.192 482.728 260.852 482.836 261.356 483.004C261.884 483.148 262.34 483.388 262.724 483.724C263.108 484.06 263.504 484.552 263.912 485.2L268.772 492.868C269.252 493.588 269.876 494.056 270.644 494.272C271.436 494.488 272.168 494.644 272.84 494.74V496H267.116L260.6 485.992C260.216 485.392 259.796 484.948 259.34 484.66C258.908 484.372 258.428 484.18 257.9 484.084C257.372 483.988 256.772 483.94 256.1 483.94ZM270.866 496V494.74H272.954L281.666 471.88H284.366L292.61 494.74H295.058V496H286.526V494.74H288.866L289.046 494.56L282.242 475.3H282.062L274.754 494.56L274.934 494.74H277.886V496H270.866ZM276.59 487.36V486.1H287.354V487.36H276.59ZM295.963 496V494.74H298.843L299.023 494.56V473.32L298.843 473.14H295.963V471.88H306.583C307.615 471.88 308.659 471.988 309.715 472.204C310.771 472.396 311.743 472.744 312.631 473.248C313.519 473.728 314.227 474.4 314.755 475.264C315.307 476.104 315.583 477.16 315.583 478.432C315.583 479.68 315.295 480.76 314.719 481.672C314.143 482.56 313.399 483.292 312.487 483.868C311.575 484.444 310.591 484.876 309.535 485.164C308.503 485.428 307.519 485.56 306.583 485.56H300.643L302.263 485.236V494.56L302.443 494.74H306.763V496H295.963ZM302.263 484.66L300.643 484.3H305.863C307.039 484.3 308.095 484.156 309.031 483.868C309.991 483.556 310.747 483.004 311.299 482.212C311.875 481.396 312.163 480.232 312.163 478.72C312.163 477.4 311.875 476.332 311.299 475.516C310.723 474.7 309.955 474.1 308.995 473.716C308.035 473.332 306.991 473.14 305.863 473.14H302.443L302.263 473.32V484.66ZM331.616 496V494.74H334.496L334.676 494.56V473.32L334.496 473.14H331.616V471.88H340.976V473.14H338.096L337.916 473.32V494.56L338.096 494.74H340.976V496H331.616ZM316.496 496V494.74H319.376L319.556 494.56V473.32L319.376 473.14H316.496V471.88H325.856V473.14H322.976L322.796 473.32V494.56L322.976 494.74H325.856V496H316.496ZM322.076 491.32V489.34L335.396 475.66V477.64L322.076 491.32ZM343.145 496V494.74H346.025L346.205 494.56V473.32L346.025 473.14H343.145V471.88H360.029L361.325 477.64L360.137 478C359.801 476.728 359.345 475.744 358.769 475.048C358.217 474.352 357.437 473.86 356.429 473.572C355.445 473.284 354.137 473.14 352.505 473.14H349.625L349.445 473.32V482.32H353.765C354.701 482.32 355.685 482.428 356.717 482.644C357.773 482.836 358.757 483.172 359.669 483.652C360.581 484.132 361.325 484.792 361.901 485.632C362.477 486.448 362.765 487.48 362.765 488.728C362.765 490 362.489 491.104 361.937 492.04C361.409 492.952 360.701 493.708 359.813 494.308C358.925 494.884 357.953 495.316 356.897 495.604C355.841 495.868 354.797 496 353.765 496H343.145ZM349.445 494.56L349.625 494.74H353.045C354.173 494.74 355.217 494.548 356.177 494.164C357.137 493.78 357.905 493.18 358.481 492.364C359.057 491.524 359.345 490.456 359.345 489.16C359.345 487.624 359.057 486.46 358.481 485.668C357.929 484.876 357.173 484.336 356.213 484.048C355.277 483.736 354.221 483.58 353.045 483.58H349.445V494.56ZM375.001 482.32C375.937 482.32 376.921 482.428 377.953 482.644C379.009 482.836 379.993 483.172 380.905 483.652C381.817 484.132 382.561 484.792 383.137 485.632C383.713 486.448 384.001 487.48 384.001 488.728C384.001 490 383.725 491.104 383.173 492.04C382.645 492.952 381.937 493.708 381.049 494.308C380.161 494.884 379.189 495.316 378.133 495.604C377.077 495.868 376.033 496 375.001 496H364.381V494.74H367.261L367.441 494.56V473.32L367.261 473.14H364.381V471.88H373.741V473.14H370.861L370.681 473.32V482.32H375.001ZM374.281 494.74C375.409 494.74 376.453 494.548 377.413 494.164C378.373 493.78 379.141 493.18 379.717 492.364C380.293 491.524 380.581 490.456 380.581 489.16C380.581 487.624 380.293 486.46 379.717 485.668C379.165 484.876 378.409 484.336 377.449 484.048C376.513 483.736 375.457 483.58 374.281 483.58H370.681V494.56L370.861 494.74H374.281ZM395.701 473.14H392.821L392.641 473.32V494.56L392.821 494.74H395.701V496H386.341V494.74H389.221L389.401 494.56V473.32L389.221 473.14H386.341V471.88H395.701V473.14Z" fill="#217D7A"/>
<path d="M210.476 316.447C208.553 311.133 216.385 293.081 222.033 292.204C227.681 291.327 239.15 309.812 238.051 314.816C236.952 319.819 212.399 321.76 210.476 316.447Z" stroke="white" stroke-width="3"/>
<path d="M189.466 244.568C207.32 244.238 208.865 285.932 196.463 289.627C187.048 292.431 166.444 278.542 167.205 263.303C167.771 251.976 178.098 244.779 189.466 244.568Z" stroke="white" stroke-width="3"/>
<path d="M237.991 240.931C222.73 248.024 233.253 283.914 242.99 285.208C252.728 286.502 270.56 266.429 265.12 251.529C261.106 240.533 248.632 235.985 237.991 240.931Z" stroke="white" stroke-width="3"/>
<path d="M134.71 378.582L183.267 332.156C183.267 332.156 171.335 367.646 186.301 371.82C200.611 375.812 211.564 343.379 211.564 343.379C211.564 343.379 220.603 373.731 231.817 368.189C240.996 363.653 236.723 342.44 236.723 342.44C236.723 342.44 263.425 363.618 271.813 352.14C278.509 342.975 265.684 323.732 265.684 323.732L304.135 346.028C304.135 346.028 298.068 374.924 324.389 370.837C345.275 367.594 331.59 341.765 331.59 341.765C331.59 341.765 360.77 325.501 339.543 313.513C323.277 304.327 311.926 327.796 311.926 327.796L279.205 308.202C279.205 308.202 298.901 285.155 297.322 262.912C296.334 249.007 290.022 227.97 290.022 227.97L316.731 201.804C316.731 201.804 361.054 210.176 357.428 186.82C354.552 168.295 322.005 179.434 322.005 179.434C322.005 179.434 328.384 168.283 325.396 162.041C320.178 151.139 306.39 148.723 296.471 154.82C284.668 162.074 296.355 190.288 296.355 190.288L277.064 208.9C277.064 208.9 249.692 192.579 204.712 197.646C149.752 203.837 142.451 228.24 142.451 228.24L117.365 213.551C117.365 213.551 136.011 186.762 110.281 182.012C84.6462 177.279 90.9486 213.436 90.9486 213.436C90.9486 213.436 66.5978 207.534 64.762 226.872C63.7434 237.601 69.7513 245.931 84.8784 245.768C94.6216 245.664 106.76 233.781 106.76 233.781L135.428 250.413C135.428 250.413 132.356 286.964 152.76 318.778C155.905 323.681 160.713 324.727 160.713 324.727L128.216 357.883C128.216 357.883 98.635 334.366 89.0011 360.848C81.4144 381.703 109.98 384.295 109.98 384.295C109.98 384.295 99.6206 412.14 122.834 412.752C143.614 413.3 134.71 378.582 134.71 378.582Z" stroke="white" stroke-width="3"/>
</svg>
